<svg width="24" height="24" viewBox="0 0 24 24" fill="none" xmlns="http://www.w3.org/2000/svg">
<path d="M23.25 7.50002C23.2503 7.08889 23.1541 6.68342 22.9691 6.31628C22.784 5.94914 22.5153 5.6306 22.1846 5.38632C21.8539 5.14204 21.4705 4.97885 21.0652 4.90991C20.6599 4.84096 20.244 4.86818 19.8512 4.98937C19.4583 5.11057 19.0994 5.32235 18.8034 5.60765C18.5073 5.89296 18.2824 6.24381 18.1468 6.63194C18.0112 7.02006 17.9687 7.43462 18.0227 7.8422C18.0766 8.24977 18.2255 8.63898 18.4575 8.97846L15.9459 12.0722L13.6875 6.88127C14.0994 6.5346 14.3947 6.06967 14.5335 5.54949C14.6722 5.02931 14.6477 4.47905 14.4632 3.97328C14.2787 3.46752 13.9431 3.03072 13.502 2.72209C13.0609 2.41346 12.5355 2.24792 11.9971 2.24792C11.4588 2.24792 10.9334 2.41346 10.4923 2.72209C10.0512 3.03072 9.71563 3.46752 9.53112 3.97328C9.34661 4.47905 9.32207 5.02931 9.46083 5.54949C9.59959 6.06967 9.89493 6.5346 10.3068 6.88127L8.05402 12.0694L5.54245 8.97565C5.86509 8.50291 6.02437 7.93768 5.99606 7.36604C5.96774 6.7944 5.75337 6.24768 5.3856 5.80915C5.01782 5.37061 4.5168 5.06429 3.95883 4.93683C3.40086 4.80938 2.81653 4.86778 2.29482 5.10313C1.77311 5.33849 1.34262 5.73791 1.06891 6.24056C0.795197 6.7432 0.693266 7.32154 0.778638 7.88747C0.864011 8.45341 1.13201 8.97594 1.54182 9.37547C1.95162 9.77501 2.48078 10.0297 3.0487 10.1006L4.4062 18.2466C4.46456 18.5968 4.64526 18.915 4.91614 19.1445C5.18702 19.374 5.53054 19.5 5.88558 19.5H18.1143C18.4694 19.5 18.8129 19.374 19.0838 19.1445C19.3547 18.915 19.5353 18.5968 19.5937 18.2466L20.9503 10.1044C21.5851 10.0251 22.1692 9.7167 22.5926 9.23712C23.0161 8.75754 23.2499 8.13981 23.25 7.50002ZM12 3.75002C12.2225 3.75002 12.44 3.816 12.625 3.93962C12.81 4.06324 12.9542 4.23894 13.0393 4.44451C13.1245 4.65007 13.1467 4.87627 13.1033 5.0945C13.0599 5.31273 12.9528 5.51319 12.7954 5.67052C12.6381 5.82785 12.4377 5.935 12.2194 5.97841C12.0012 6.02182 11.775 5.99954 11.5694 5.91439C11.3639 5.82924 11.1882 5.68505 11.0646 5.50004C10.9409 5.31504 10.875 5.09753 10.875 4.87502C10.875 4.57666 10.9935 4.29051 11.2045 4.07953C11.4154 3.86855 11.7016 3.75002 12 3.75002ZM2.24995 7.50002C2.24995 7.27752 2.31593 7.06001 2.43955 6.87501C2.56317 6.69 2.73887 6.54581 2.94444 6.46066C3.15 6.37551 3.3762 6.35323 3.59443 6.39664C3.81266 6.44005 4.01312 6.5472 4.17045 6.70453C4.32778 6.86186 4.43493 7.06232 4.47834 7.28055C4.52175 7.49878 4.49947 7.72498 4.41432 7.93054C4.32917 8.13611 4.18498 8.31181 3.99997 8.43543C3.81497 8.55904 3.59746 8.62502 3.37495 8.62502C3.07659 8.62502 2.79044 8.5065 2.57946 8.29552C2.36848 8.08454 2.24995 7.79839 2.24995 7.50002ZM18.1143 18H5.88558L4.58058 10.1738L7.66777 13.9688C7.73769 14.0561 7.82626 14.1267 7.927 14.1754C8.02773 14.224 8.13808 14.2495 8.24995 14.25C8.28382 14.2502 8.31765 14.248 8.3512 14.2435C8.47898 14.2261 8.60011 14.1761 8.70291 14.0982C8.80571 14.0204 8.88671 13.9174 8.93808 13.7991L11.685 7.48034C11.8941 7.50657 12.1058 7.50657 12.315 7.48034L15.0618 13.7991C15.1132 13.9174 15.1942 14.0204 15.297 14.0982C15.3998 14.1761 15.5209 14.2261 15.6487 14.2435C15.6823 14.248 15.7161 14.2502 15.75 14.25C15.8618 14.2495 15.9722 14.224 16.0729 14.1754C16.1736 14.1267 16.2622 14.0561 16.3321 13.9688L19.4193 10.17L18.1143 18ZM20.625 8.62502C20.4025 8.62502 20.1849 8.55904 19.9999 8.43543C19.8149 8.31181 19.6707 8.13611 19.5856 7.93054C19.5004 7.72498 19.4782 7.49878 19.5216 7.28055C19.565 7.06232 19.6721 6.86186 19.8295 6.70453C19.9868 6.5472 20.1872 6.44005 20.4055 6.39664C20.6237 6.35323 20.8499 6.37551 21.0555 6.46066C21.261 6.54581 21.4367 6.69 21.5604 6.87501C21.684 7.06001 21.75 7.27752 21.75 7.50002C21.75 7.79839 21.6314 8.08454 21.4204 8.29552C21.2095 8.5065 20.9233 8.62502 20.625 8.62502Z" fill="#565968"/>
</svg>
