<svg width="24" height="24" viewBox="0 0 24 24" fill="none" xmlns="http://www.w3.org/2000/svg">
<path fill-rule="evenodd" clip-rule="evenodd" d="M16.029 3.01117C16.4843 3.77114 17.0757 6.34701 17.0171 7.31459L16.9701 8.08988L18.0142 7.11055C20.0065 5.24176 20.011 5.29114 17.7091 3.77383C16.2818 2.83304 15.7881 2.60893 16.029 3.01117Z" fill="#A7A7A7"/>
<path fill-rule="evenodd" clip-rule="evenodd" d="M19.3959 5.38278C19.3212 5.50366 18.6071 5.98455 17.8089 6.45145C16.8221 7.02873 16.1516 7.62626 15.7133 8.31898C14.4936 10.2469 12.3161 11.6321 10.5052 11.6321C9.32076 11.6321 9.41403 11.7743 11.6167 13.3265C14.7065 15.504 15.1377 16.1832 14.1952 17.3881C13.6658 18.0649 13.6057 18.8362 14.0534 19.2078C14.7737 19.8057 16.9304 19.4367 17.9034 18.5492C18.1176 18.3538 18.5544 17.9576 18.8741 17.6688C20.4972 16.2022 21.6529 13.0046 21.5135 10.3658C21.3872 7.97472 19.9232 4.52966 19.3959 5.38278Z" fill="#B6B6B6"/>
<path fill-rule="evenodd" clip-rule="evenodd" d="M12.7203 2.80739C10.3424 3.99234 8.91084 6.34686 8.88339 9.11792L8.86522 10.9533L6.17902 14.4183C3.49735 17.8774 3.13945 18.5726 3.73431 19.1675C4.51692 19.9501 4.99295 19.5618 7.99555 15.6917L10.882 11.9713L11.8814 11.8191C14.7132 11.3878 17.1178 8.65044 17.2989 5.65162C17.4786 2.67872 15.4755 1.43442 12.7203 2.80739Z" fill="white"/>
</svg>
